<svg width="1839" height="1828" viewBox="0 0 1839 1828" fill="none" xmlns="http://www.w3.org/2000/svg">
<g clip-path="url(#clip0_4_429)">
<rect width="1839" height="1828" fill="white"/>
<path d="M145.752 160C145.752 155.582 142.17 152 137.752 152C133.333 152 129.752 155.582 129.752 160L145.752 160ZM129.752 160L129.752 231L145.752 231L145.752 160L129.752 160Z" fill="#05976A"/>
<path d="M202.918 231C207.336 231 210.918 227.418 210.918 223C210.918 218.582 207.336 215 202.918 215L202.918 231ZM202.918 215L130.189 215L130.189 231L202.918 231L202.918 215Z" fill="#05976A"/>
<rect width="1839" height="1828" fill="#D3F5E4"/>
<path d="M1771 284C1771 288.418 1774.58 292 1779 292C1783.42 292 1787 288.418 1787 284L1771 284ZM1787 284L1787 213L1771 213L1771 284L1787 284Z" fill="#05976A"/>
<path d="M1713.83 213C1709.41 213 1705.83 216.582 1705.83 221C1705.83 225.418 1709.41 229 1713.83 229L1713.83 213ZM1713.83 229L1786.56 229L1786.56 213L1713.83 213L1713.83 229Z" fill="#05976A"/>
<path d="M283.645 1317C283.645 1321.42 287.227 1325 291.645 1325C296.063 1325 299.645 1321.42 299.645 1317L283.645 1317ZM299.645 1317L299.645 1246L283.645 1246L283.645 1317L299.645 1317Z" fill="#05976A"/>
<path d="M226.479 1246C222.06 1246 218.479 1249.58 218.479 1254C218.479 1258.42 222.06 1262 226.479 1262L226.479 1246ZM226.479 1262L299.207 1262L299.207 1246L226.479 1246L226.479 1262Z" fill="#05976A"/>
<path d="M1444.23 177C1444.23 181.418 1447.81 185 1452.23 185C1456.65 185 1460.23 181.418 1460.23 177L1444.23 177ZM1460.23 177L1460.23 106L1444.23 106L1444.23 177L1460.23 177Z" fill="#05976A"/>
<path d="M1387.07 106C1382.65 106 1379.07 109.582 1379.07 114C1379.07 118.418 1382.65 122 1387.07 122L1387.07 106ZM1387.07 122L1459.79 122L1459.79 106L1387.07 106L1387.07 122Z" fill="#05976A"/>
<path d="M194.526 1593C194.526 1597.42 198.108 1601 202.526 1601C206.945 1601 210.526 1597.42 210.526 1593L194.526 1593ZM210.526 1593L210.526 1522L194.526 1522L194.526 1593L210.526 1593Z" fill="#05976A"/>
<path d="M137.36 1522C132.942 1522 129.36 1525.58 129.36 1530C129.36 1534.42 132.942 1538 137.36 1538L137.36 1522ZM137.36 1538L210.089 1538L210.089 1522L137.36 1522L137.36 1538Z" fill="#05976A"/>
<path d="M597.096 1543C597.096 1547.42 600.677 1551 605.096 1551C609.514 1551 613.096 1547.42 613.096 1543L597.096 1543ZM613.096 1543L613.096 1472L597.096 1472L597.096 1543L613.096 1543Z" fill="#05976A"/>
<path d="M539.929 1472C535.511 1472 531.929 1475.58 531.929 1480C531.929 1484.42 535.511 1488 539.929 1488L539.929 1472ZM539.929 1488L612.658 1488L612.658 1472L539.929 1472L539.929 1488Z" fill="#05976A"/>
<path d="M921.562 717C921.562 712.582 917.981 709 913.562 709C909.144 709 905.562 712.582 905.562 717L921.562 717ZM905.562 717L905.562 788L921.562 788L921.562 717L905.562 717Z" fill="#05976A"/>
<path d="M978.729 788C983.147 788 986.729 784.418 986.729 780C986.729 775.582 983.147 772 978.729 772L978.729 788ZM978.729 772L906 772L906 788L978.729 788L978.729 772Z" fill="#05976A"/>
<path d="M138.581 418C138.581 413.582 135 410 130.581 410C126.163 410 122.581 413.582 122.581 418L138.581 418ZM122.581 418L122.581 489L138.581 489L138.581 418L122.581 418Z" fill="#05976A"/>
<path d="M195.748 489C200.166 489 203.748 485.418 203.748 481C203.748 476.582 200.166 473 195.748 473L195.748 489ZM195.748 473L123.019 473L123.019 489L195.748 489L195.748 473Z" fill="#05976A"/>
<path d="M1182 142C1182 146.418 1185.58 150 1190 150C1194.42 150 1198 146.418 1198 142L1182 142ZM1198 142L1198 70.9998L1182 70.9998L1182 142L1198 142Z" fill="#05976A"/>
<path d="M1124.83 70.9998C1120.41 70.9998 1116.83 74.5815 1116.83 78.9998C1116.83 83.418 1120.41 86.9998 1124.83 86.9998L1124.83 70.9998ZM1124.83 86.9998L1197.56 86.9998L1197.56 70.9998L1124.83 70.9998L1124.83 86.9998Z" fill="#05976A"/>
<path d="M1741.29 1115C1741.29 1119.42 1744.87 1123 1749.29 1123C1753.71 1123 1757.29 1119.42 1757.29 1115L1741.29 1115ZM1757.29 1115L1757.29 1044L1741.29 1044L1741.29 1115L1757.29 1115Z" fill="#05976A"/>
<path d="M1684.13 1044C1679.71 1044 1676.13 1047.58 1676.13 1052C1676.13 1056.42 1679.71 1060 1684.13 1060L1684.13 1044ZM1684.13 1060L1756.86 1060L1756.86 1044L1684.13 1044L1684.13 1060Z" fill="#05976A"/>
<path d="M290.815 1059C290.815 1063.42 294.397 1067 298.815 1067C303.234 1067 306.815 1063.42 306.815 1059L290.815 1059ZM306.815 1059L306.815 988L290.815 988L290.815 1059L306.815 1059Z" fill="#05976A"/>
<path d="M233.649 988C229.231 988 225.649 991.581 225.649 996C225.649 1000.42 229.231 1004 233.649 1004L233.649 988ZM233.649 1004L306.378 1004L306.378 988L233.649 988L233.649 1004Z" fill="#05976A"/>
<path d="M1011.96 1614C1011.96 1618.42 1015.54 1622 1019.96 1622C1024.38 1622 1027.96 1618.42 1027.96 1614L1011.96 1614ZM1027.96 1614L1027.96 1543L1011.96 1543L1011.96 1614L1027.96 1614Z" fill="#05976A"/>
<path d="M954.791 1543C950.372 1543 946.791 1546.58 946.791 1551C946.791 1555.42 950.372 1559 954.791 1559L954.791 1543ZM954.791 1559L1027.52 1559L1027.52 1543L954.791 1543L954.791 1559Z" fill="#05976A"/>
<path d="M526.562 819C526.562 814.582 522.981 811 518.562 811C514.144 811 510.562 814.582 510.562 819L526.562 819ZM510.562 819L510.562 890L526.562 890L526.562 819L510.562 819Z" fill="#05976A"/>
<path d="M583.729 890C588.147 890 591.729 886.418 591.729 882C591.729 877.582 588.147 874 583.729 874L583.729 890ZM583.729 874L511 874L511 890L583.729 890L583.729 874Z" fill="#05976A"/>
<path d="M1542.57 961C1542.57 965.418 1546.15 969 1550.57 969C1554.99 969 1558.57 965.418 1558.57 961L1542.57 961ZM1558.57 961L1558.57 890L1542.57 890L1542.57 961L1558.57 961Z" fill="#05976A"/>
<path d="M1485.4 890C1480.98 890 1477.4 893.582 1477.4 898C1477.4 902.418 1480.98 906 1485.4 906L1485.4 890ZM1485.4 906L1558.13 906L1558.13 890L1485.4 890L1485.4 906Z" fill="#05976A"/>
<path d="M1017.17 516C1017.17 520.418 1020.75 524 1025.17 524C1029.58 524 1033.17 520.418 1033.17 516L1017.17 516ZM1033.17 516L1033.17 445L1017.17 445L1017.17 516L1033.17 516Z" fill="#05976A"/>
<path d="M960 445C955.582 445 952 448.582 952 453C952 457.418 955.582 461 960 461L960 445ZM960 461L1032.73 461L1032.73 445L960 445L960 461Z" fill="#05976A"/>
<path d="M604.266 1285C604.266 1289.42 607.848 1293 612.266 1293C616.684 1293 620.266 1289.42 620.266 1285L604.266 1285ZM620.266 1285L620.266 1214L604.266 1214L604.266 1285L620.266 1285Z" fill="#05976A"/>
<path d="M547.1 1214C542.681 1214 539.1 1217.58 539.1 1222C539.1 1226.42 542.681 1230 547.1 1230L547.1 1214ZM547.1 1230L619.828 1230L619.828 1214L547.1 1214L547.1 1230Z" fill="#05976A"/>
<path d="M922.208 1095C922.208 1090.58 918.627 1087 914.208 1087C909.79 1087 906.208 1090.58 906.208 1095L922.208 1095ZM906.208 1095L906.208 1166L922.208 1166L922.208 1095L906.208 1095Z" fill="#05976A"/>
<path d="M979.375 1166C983.793 1166 987.375 1162.42 987.375 1158C987.375 1153.58 983.793 1150 979.375 1150L979.375 1166ZM979.375 1150L906.646 1150L906.646 1166L979.375 1166L979.375 1150Z" fill="#05976A"/>
<path d="M769.562 233C769.562 228.582 765.981 225 761.562 225C757.144 225 753.562 228.582 753.562 233L769.562 233ZM753.562 233L753.562 304L769.562 304L769.562 233L753.562 233Z" fill="#05976A"/>
<path d="M826.729 304C831.147 304 834.729 300.418 834.729 296C834.729 291.582 831.147 288 826.729 288L826.729 304ZM826.729 288L754 288L754 304L826.729 304L826.729 288Z" fill="#05976A"/>
<path d="M1482.53 373C1482.53 368.581 1478.95 365 1474.53 365C1470.11 365 1466.53 368.581 1466.53 373L1482.53 373ZM1466.53 373L1466.53 444L1482.53 444L1482.53 373L1466.53 373Z" fill="#05976A"/>
<path d="M1539.69 444C1544.11 444 1547.69 440.418 1547.69 436C1547.69 431.581 1544.11 428 1539.69 428L1539.69 444ZM1539.69 428L1466.96 428L1466.96 444L1539.69 444L1539.69 428Z" fill="#05976A"/>
<path d="M448.959 1072C448.959 1067.58 445.377 1064 440.959 1064C436.541 1064 432.959 1067.58 432.959 1072L448.959 1072ZM432.959 1072L432.959 1143L448.959 1143L448.959 1072L432.959 1072Z" fill="#05976A"/>
<path d="M506.126 1143C510.544 1143 514.126 1139.42 514.126 1135C514.126 1130.58 510.544 1127 506.126 1127L506.126 1143ZM506.126 1127L433.397 1127L433.397 1143L506.126 1143L506.126 1127Z" fill="#05976A"/>
<path d="M1371.17 1166C1371.17 1170.42 1374.75 1174 1379.17 1174C1383.58 1174 1387.17 1170.42 1387.17 1166L1371.17 1166ZM1387.17 1166L1387.17 1095L1371.17 1095L1371.17 1166L1387.17 1166Z" fill="#05976A"/>
<path d="M1314 1095C1309.58 1095 1306 1098.58 1306 1103C1306 1107.42 1309.58 1111 1314 1111L1314 1095ZM1314 1111L1386.73 1111L1386.73 1095L1314 1095L1314 1111Z" fill="#05976A"/>
<path d="M1789.44 1405C1789.44 1409.42 1793.02 1413 1797.44 1413C1801.86 1413 1805.44 1409.42 1805.44 1405L1789.44 1405ZM1805.44 1405L1805.44 1334L1789.44 1334L1789.44 1405L1805.44 1405Z" fill="#05976A"/>
<path d="M1732.27 1334C1727.85 1334 1724.27 1337.58 1724.27 1342C1724.27 1346.42 1727.85 1350 1732.27 1350L1732.27 1334ZM1732.27 1350L1805 1350L1805 1334L1732.27 1334L1732.27 1350Z" fill="#05976A"/>
<path d="M114.627 658C114.627 662.418 118.209 666 122.627 666C127.045 666 130.627 662.418 130.627 658L114.627 658ZM130.627 658L130.627 587L114.627 587L114.627 658L130.627 658Z" fill="#05976A"/>
<path d="M57.4607 587C53.0424 587 49.4607 590.582 49.4607 595C49.4607 599.418 53.0424 603 57.4607 603L57.4607 587ZM57.4607 603L130.189 603L130.189 587L57.4607 587L57.4607 603Z" fill="#05976A"/>
<path d="M1263.32 497C1263.32 492.582 1259.73 489 1255.32 489C1250.9 489 1247.32 492.582 1247.32 497L1263.32 497ZM1247.32 497L1247.32 568L1263.32 568L1263.32 497L1247.32 497Z" fill="#05976A"/>
<path d="M1320.48 568C1324.9 568 1328.48 564.418 1328.48 560C1328.48 555.582 1324.9 552 1320.48 552L1320.48 568ZM1320.48 552L1247.75 552L1247.75 568L1320.48 568L1320.48 552Z" fill="#05976A"/>
<path d="M1416.97 694C1416.97 689.582 1413.39 686 1408.97 686C1404.55 686 1400.97 689.582 1400.97 694L1416.97 694ZM1400.97 694L1400.97 765L1416.97 765L1416.97 694L1400.97 694Z" fill="#05976A"/>
<path d="M1474.14 765C1478.55 765 1482.14 761.418 1482.14 757C1482.14 752.582 1478.55 749 1474.14 749L1474.14 765ZM1474.14 749L1401.41 749L1401.41 765L1474.14 765L1474.14 749Z" fill="#05976A"/>
<path d="M314.77 819C314.77 814.581 311.188 811 306.77 811C302.351 811 298.77 814.581 298.77 819L314.77 819ZM298.77 819L298.77 890L314.77 890L314.77 819L298.77 819Z" fill="#05976A"/>
<path d="M371.936 890C376.354 890 379.936 886.418 379.936 882C379.936 877.581 376.354 874 371.936 874L371.936 890ZM371.936 874L299.207 874L299.207 890L371.936 890L371.936 874Z" fill="#05976A"/>
<path d="M898.254 1335C898.254 1339.42 901.836 1343 906.254 1343C910.672 1343 914.254 1339.42 914.254 1335L898.254 1335ZM914.254 1335L914.254 1264L898.254 1264L898.254 1335L914.254 1335Z" fill="#05976A"/>
<path d="M841.088 1264C836.669 1264 833.088 1267.58 833.088 1272C833.088 1276.42 836.669 1280 841.088 1280L841.088 1264ZM841.088 1280L913.816 1280L913.816 1264L841.088 1264L841.088 1280Z" fill="#05976A"/>
<path d="M432.166 373C432.166 377.418 435.748 381 440.166 381C444.585 381 448.166 377.418 448.166 373L432.166 373ZM448.166 373L448.166 302L432.166 302L432.166 373L448.166 373Z" fill="#05976A"/>
<path d="M375 302C370.582 302 367 305.582 367 310C367 314.418 370.582 318 375 318L375 302ZM375 318L447.729 318L447.729 302L375 302L375 318Z" fill="#05976A"/>
<path d="M1094.56 260C1094.56 255.582 1090.98 252 1086.56 252C1082.14 252 1078.56 255.582 1078.56 260L1094.56 260ZM1078.56 260L1078.56 331L1094.56 331L1094.56 260L1078.56 260Z" fill="#05976A"/>
<path d="M1151.73 331C1156.15 331 1159.73 327.418 1159.73 323C1159.73 318.582 1156.15 315 1151.73 315L1151.73 331ZM1151.73 315L1079 315L1079 331L1151.73 331L1151.73 315Z" fill="#05976A"/>
<path d="M1692.52 338C1692.52 333.581 1688.94 330 1684.52 330C1680.1 330 1676.52 333.581 1676.52 338L1692.52 338ZM1676.52 338L1676.52 409L1692.52 409L1692.52 338L1676.52 338Z" fill="#05976A"/>
<path d="M1749.69 409C1754.1 409 1757.69 405.418 1757.69 401C1757.69 396.581 1754.1 393 1749.69 393L1749.69 409ZM1749.69 393L1676.96 393L1676.96 409L1749.69 409L1749.69 393Z" fill="#05976A"/>
<path d="M49.5623 873C49.5623 868.582 45.9806 865 41.5623 865C37.1441 865 33.5623 868.582 33.5623 873L49.5623 873ZM33.5623 873L33.5623 944L49.5623 944L49.5623 873L33.5623 873Z" fill="#05976A"/>
<path d="M106.729 944C111.147 944 114.729 940.418 114.729 936C114.729 931.582 111.147 928 106.729 928L106.729 944ZM106.729 928L34 928L34 944L106.729 944L106.729 928Z" fill="#05976A"/>
<path d="M759.967 719C759.967 723.418 763.549 727 767.967 727C772.385 727 775.967 723.418 775.967 719L759.967 719ZM775.967 719L775.967 648L759.967 648L759.967 719L775.967 719Z" fill="#05976A"/>
<path d="M702.801 648C698.382 648 694.801 651.582 694.801 656C694.801 660.418 698.382 664 702.801 664L702.801 648ZM702.801 664L775.529 664L775.529 648L702.801 648L702.801 664Z" fill="#05976A"/>
<path d="M1139.17 969C1139.17 973.418 1142.75 977 1147.17 977C1151.58 977 1155.17 973.418 1155.17 969L1139.17 969ZM1155.17 969L1155.17 898L1139.17 898L1139.17 969L1155.17 969Z" fill="#05976A"/>
<path d="M1082 898C1077.58 898 1074 901.582 1074 906C1074 910.418 1077.58 914 1082 914L1082 898ZM1082 914L1154.73 914L1154.73 898L1082 898L1082 914Z" fill="#05976A"/>
<path d="M1579.45 1440C1579.45 1444.42 1583.03 1448 1587.45 1448C1591.86 1448 1595.45 1444.42 1595.45 1440L1579.45 1440ZM1595.45 1440L1595.45 1369L1579.45 1369L1579.45 1440L1595.45 1440Z" fill="#05976A"/>
<path d="M1522.28 1369C1517.86 1369 1514.28 1372.58 1514.28 1377C1514.28 1381.42 1517.86 1385 1522.28 1385L1522.28 1369ZM1522.28 1385L1595.01 1385L1595.01 1369L1522.28 1369L1522.28 1385Z" fill="#05976A"/>
<path d="M359.447 196C359.447 200.418 363.028 204 367.447 204C371.865 204 375.447 200.418 375.447 196L359.447 196ZM375.447 196L375.447 125L359.447 125L359.447 196L375.447 196Z" fill="#05976A"/>
<path d="M302.28 125C297.862 125 294.28 128.582 294.28 133C294.28 137.418 297.862 141 302.28 141L302.28 125ZM302.28 141L375.009 141L375.009 125L302.28 125L302.28 141Z" fill="#05976A"/>
<path d="M1685.35 532C1685.35 527.581 1681.77 524 1677.35 524C1672.93 524 1669.35 527.581 1669.35 532L1685.35 532ZM1669.35 532L1669.35 603L1685.35 603L1685.35 532L1669.35 532Z" fill="#05976A"/>
<path d="M1742.51 603C1746.93 603 1750.51 599.418 1750.51 595C1750.51 590.581 1746.93 587 1742.51 587L1742.51 603ZM1742.51 587L1669.79 587L1669.79 603L1742.51 603L1742.51 587Z" fill="#05976A"/>
<path d="M69.9501 1281C69.9501 1276.58 66.3684 1273 61.9501 1273C57.5318 1273 53.9501 1276.58 53.9501 1281L69.9501 1281ZM53.9501 1281L53.9501 1352L69.9501 1352L69.9501 1281L53.9501 1281Z" fill="#05976A"/>
<path d="M127.117 1352C131.535 1352 135.117 1348.42 135.117 1344C135.117 1339.58 131.535 1336 127.117 1336L127.117 1352ZM127.117 1336L54.3878 1336L54.3878 1352L127.117 1352L127.117 1336Z" fill="#05976A"/>
<path d="M767.137 525C767.137 529.418 770.719 533 775.137 533C779.556 533 783.137 529.418 783.137 525L767.137 525ZM783.137 525L783.137 454L767.137 454L767.137 525L783.137 525Z" fill="#05976A"/>
<path d="M709.971 454C705.553 454 701.971 457.582 701.971 462C701.971 466.418 705.553 470 709.971 470L709.971 454ZM709.971 470L782.7 470L782.7 454L709.971 454L709.971 470Z" fill="#05976A"/>
<path d="M553.443 34.9998C553.443 30.5815 549.861 26.9998 545.443 26.9998C541.024 26.9998 537.443 30.5815 537.443 34.9998L553.443 34.9998ZM537.443 34.9998L537.443 106L553.443 106L553.443 34.9998L537.443 34.9998Z" fill="#05976A"/>
<path d="M610.609 106C615.027 106 618.609 102.418 618.609 97.9998C618.609 93.5815 615.027 89.9998 610.609 89.9998L610.609 106ZM610.609 89.9998L537.88 89.9997L537.88 106L610.609 106L610.609 89.9998Z" fill="#05976A"/>
<path d="M1277.66 203C1277.66 198.581 1274.08 195 1269.66 195C1265.24 195 1261.66 198.581 1261.66 203L1277.66 203ZM1261.66 203L1261.66 274L1277.66 274L1277.66 203L1261.66 203Z" fill="#05976A"/>
<path d="M1334.82 274C1339.24 274 1342.82 270.418 1342.82 266C1342.82 261.581 1339.24 258 1334.82 258L1334.82 274ZM1334.82 258L1262.1 258L1262.1 274L1334.82 274L1334.82 258Z" fill="#05976A"/>
<path d="M383.401 1507C383.401 1502.58 379.819 1499 375.401 1499C370.982 1499 367.401 1502.58 367.401 1507L383.401 1507ZM367.401 1507L367.401 1578L383.401 1578L383.401 1507L367.401 1507Z" fill="#05976A"/>
<path d="M440.567 1578C444.985 1578 448.567 1574.42 448.567 1570C448.567 1565.58 444.985 1562 440.567 1562L440.567 1578ZM440.567 1562L367.838 1562L367.838 1578L440.567 1578L440.567 1562Z" fill="#05976A"/>
<path d="M1128.17 694C1128.17 698.418 1131.75 702 1136.17 702C1140.58 702 1144.17 698.418 1144.17 694L1128.17 694ZM1144.17 694L1144.17 623L1128.17 623L1128.17 694L1144.17 694Z" fill="#05976A"/>
<path d="M1071 623C1066.58 623 1063 626.582 1063 631C1063 635.418 1066.58 639 1071 639L1071 623ZM1071 639L1143.73 639L1143.73 623L1071 623L1071 639Z" fill="#05976A"/>
<path d="M1586.62 1246C1586.62 1250.42 1590.2 1254 1594.62 1254C1599.03 1254 1602.62 1250.42 1602.62 1246L1586.62 1246ZM1602.62 1246L1602.62 1175L1586.62 1175L1586.62 1246L1602.62 1246Z" fill="#05976A"/>
<path d="M1529.45 1175C1525.03 1175 1521.45 1178.58 1521.45 1183C1521.45 1187.42 1525.03 1191 1529.45 1191L1529.45 1175ZM1529.45 1191L1602.18 1191L1602.18 1175L1529.45 1175L1529.45 1191Z" fill="#05976A"/>
<path d="M376.23 587C376.23 582.582 372.649 579 368.23 579C363.812 579 360.23 582.582 360.23 587L376.23 587ZM360.23 587L360.23 658L376.23 658L376.23 587L360.23 587Z" fill="#05976A"/>
<path d="M433.397 658C437.815 658 441.397 654.418 441.397 650C441.397 645.582 437.815 642 433.397 642L433.397 658ZM433.397 642L360.668 642L360.668 658L433.397 658L433.397 642Z" fill="#05976A"/>
<path d="M1725.93 890C1725.93 894.418 1729.51 898 1733.93 898C1738.35 898 1741.93 894.418 1741.93 890L1725.93 890ZM1741.93 890L1741.93 819L1725.93 819L1725.93 890L1741.93 890Z" fill="#05976A"/>
<path d="M1668.76 819C1664.34 819 1660.76 822.582 1660.76 827C1660.76 831.418 1664.34 835 1668.76 835L1668.76 819ZM1668.76 835L1741.49 835L1741.49 819L1668.76 819L1668.76 835Z" fill="#05976A"/>
<path d="M1668.56 141C1668.56 145.418 1672.15 149 1676.56 149C1680.98 149 1684.56 145.418 1684.56 141L1668.56 141ZM1684.56 141L1684.56 69.9998L1668.56 69.9998L1668.56 141L1684.56 141Z" fill="#05976A"/>
<path d="M1611.4 69.9998C1606.98 69.9998 1603.4 73.5815 1603.4 77.9998C1603.4 82.418 1606.98 85.9998 1611.4 85.9998L1611.4 69.9998ZM1611.4 85.9998L1684.13 85.9998L1684.13 69.9998L1611.4 69.9998L1611.4 85.9998Z" fill="#05976A"/>
<path d="M783.921 916C783.921 911.582 780.339 908 775.921 908C771.503 908 767.921 911.582 767.921 916L783.921 916ZM767.921 916L767.921 987L783.921 987L783.921 916L767.921 916Z" fill="#05976A"/>
<path d="M841.088 987C845.506 987 849.088 983.418 849.088 979C849.088 974.582 845.506 971 841.088 971L841.088 987ZM841.088 971L768.359 971L768.359 987L841.088 987L841.088 971Z" fill="#05976A"/>
<path d="M1159.86 1264C1159.86 1259.58 1156.28 1256 1151.86 1256C1147.44 1256 1143.86 1259.58 1143.86 1264L1159.86 1264ZM1143.86 1264L1143.86 1335L1159.86 1335L1159.86 1264L1143.86 1264Z" fill="#05976A"/>
<path d="M1217.02 1335C1221.44 1335 1225.02 1331.42 1225.02 1327C1225.02 1322.58 1221.44 1319 1217.02 1319L1217.02 1335ZM1217.02 1319L1144.29 1319L1144.29 1335L1217.02 1335L1217.02 1319Z" fill="#05976A"/>
<path d="M797.166 1709C797.166 1713.42 800.748 1717 805.166 1717C809.585 1717 813.166 1713.42 813.166 1709L797.166 1709ZM813.166 1709L813.166 1638L797.166 1638L797.166 1709L813.166 1709Z" fill="#05976A"/>
<path d="M740 1638C735.582 1638 732 1641.58 732 1646C732 1650.42 735.582 1654 740 1654L740 1638ZM740 1654L812.729 1654L812.729 1638L740 1638L740 1654Z" fill="#05976A"/>
<path d="M1422.17 1638C1422.17 1642.42 1425.75 1646 1430.17 1646C1434.58 1646 1438.17 1642.42 1438.17 1638L1422.17 1638ZM1438.17 1638L1438.17 1567L1422.17 1567L1422.17 1638L1438.17 1638Z" fill="#05976A"/>
<path d="M1365 1567C1360.58 1567 1357 1570.58 1357 1575C1357 1579.42 1360.58 1583 1365 1583L1365 1567ZM1365 1583L1437.73 1583L1437.73 1567L1365 1567L1365 1583Z" fill="#05976A"/>
<path d="M101.562 62C101.562 57.5817 97.9806 54 93.5623 54C89.144 54 85.5623 57.5817 85.5623 62L101.562 62ZM85.5623 62L85.5623 133L101.562 133L101.562 62L85.5623 62Z" fill="#05976A"/>
<path d="M158.729 133C163.147 133 166.729 129.418 166.729 125C166.729 120.582 163.147 117 158.729 117L158.729 133ZM158.729 117L86 117L86 133L158.729 133L158.729 117Z" fill="#05976A"/>
<path d="M1674.56 1673C1674.56 1668.58 1670.98 1665 1666.56 1665C1662.14 1665 1658.56 1668.58 1658.56 1673L1674.56 1673ZM1658.56 1673L1658.56 1744L1674.56 1744L1674.56 1673L1658.56 1673Z" fill="#05976A"/>
<path d="M1731.73 1744C1736.15 1744 1739.73 1740.42 1739.73 1736C1739.73 1731.58 1736.15 1728 1731.73 1728L1731.73 1744ZM1731.73 1728L1659 1728L1659 1744L1731.73 1744L1731.73 1728Z" fill="#05976A"/>
<path d="M1193.17 1807C1193.17 1811.42 1196.75 1815 1201.17 1815C1205.58 1815 1209.17 1811.42 1209.17 1807L1193.17 1807ZM1209.17 1807L1209.17 1736L1193.17 1736L1193.17 1807L1209.17 1807Z" fill="#05976A"/>
<path d="M1136 1736C1131.58 1736 1128 1739.58 1128 1744C1128 1748.42 1131.58 1752 1136 1752L1136 1736ZM1136 1752L1208.73 1752L1208.73 1736L1136 1736L1136 1752Z" fill="#05976A"/>
<path d="M322.562 1709C322.562 1704.58 318.981 1701 314.562 1701C310.144 1701 306.562 1704.58 306.562 1709L322.562 1709ZM306.562 1709L306.562 1780L322.562 1780L322.562 1709L306.562 1709Z" fill="#05976A"/>
<path d="M379.729 1780C384.147 1780 387.729 1776.42 387.729 1772C387.729 1767.58 384.147 1764 379.729 1764L379.729 1780ZM379.729 1764L307 1764L307 1780L379.729 1780L379.729 1764Z" fill="#05976A"/>
</g>
<defs>
<clipPath id="clip0_4_429">
<rect width="1839" height="1828" fill="white"/>
</clipPath>
</defs>
</svg>
